<svg version="1.1" id="Layer_1" xmlns="http://www.w3.org/2000/svg" xmlns:xlink="http://www.w3.org/1999/xlink" x="0px" y="0px"
	 width="100%" viewBox="0 0 1024 1024" enable-background="new 0 0 1024 1024" xml:space="preserve">
<path fill="#2E8B57" opacity="1.000000" stroke="none" 
	d="
M652.119507,904.242920 
	C613.124329,917.660583 573.611694,925.857239 532.628601,927.549133 
	C449.440735,930.983337 371.865845,912.194641 300.677368,869.140625 
	C222.454498,821.832275 165.177368,755.894226 129.506638,671.513733 
	C113.112160,632.731934 103.466286,592.259155 99.582161,550.366943 
	C92.672043,475.837921 105.788826,404.865875 137.295425,337.133301 
	C159.135437,290.181824 189.188217,249.041870 226.432816,213.290787 
	C281.389893,160.537491 346.078033,125.248344 420.383362,108.063202 
	C456.741455,99.654388 493.718750,96.198303 530.971375,97.958221 
	C614.567871,101.907562 690.317078,128.499191 757.843872,178.165268 
	C808.746155,215.603928 849.080200,262.270538 879.150513,317.737854 
	C901.072327,358.174713 915.498352,401.311859 923.022827,446.660675 
	C927.748169,475.139313 929.714172,503.909119 928.080811,532.748474 
	C924.379761,598.094238 907.213806,659.642761 874.652832,716.637451 
	C837.824829,781.101074 787.483032,832.387695 723.785583,870.488342 
	C701.147217,884.029480 677.382324,895.298340 652.119507,904.242920 
M185.327179,708.203003 
	C219.700684,763.964539 264.431671,809.253174 321.088318,842.488342 
	C375.895264,874.638550 435.220123,891.520325 498.528992,894.569031 
	C524.551880,895.822144 550.459351,893.908875 576.143433,889.512146 
	C637.192078,879.061523 692.633179,855.257141 741.927734,817.888916 
	C789.362427,781.930603 826.678589,737.272827 853.913269,684.148376 
	C878.545288,636.100891 891.463745,585.022400 894.505615,531.385620 
	C896.131409,502.719330 893.735901,474.200409 888.724976,445.882172 
	C878.159363,386.171875 854.073975,332.293182 817.705017,284.105255 
	C781.438232,236.052628 736.412537,198.099930 682.315613,171.112228 
	C633.441650,146.730164 581.734558,133.480377 527.262878,131.494766 
	C483.317749,129.892853 440.192993,135.673477 398.255035,149.091660 
	C324.951782,172.545273 264.231293,214.707916 216.071732,274.458588 
	C169.954788,331.675079 142.320572,396.915314 133.987167,470.262207 
	C129.912811,506.122803 130.564423,541.760437 136.660263,577.207642 
	C144.637924,623.597656 160.619904,667.171570 185.327179,708.203003 
z"/>
<path fill="#2E8B57" opacity="1.000000" stroke="none" 
	d="
M603.939209,473.103882 
	C610.811218,482.907104 616.396118,493.165771 623.470703,502.137115 
	C626.215088,501.812195 626.895325,499.925781 627.842163,498.463409 
	C652.924805,459.722382 678.119324,421.052521 702.965759,382.160370 
	C713.592468,365.526398 729.054199,358.235352 747.984558,356.589661 
	C757.471252,355.764923 766.970642,356.152802 776.464478,356.105072 
	C782.852173,356.072968 783.166931,356.477112 783.168762,362.952026 
	C783.194580,455.951263 783.212585,548.950500 783.233154,641.949768 
	C783.234253,646.783020 783.111755,651.620972 783.287964,656.447937 
	C783.423279,660.155518 781.818176,661.414124 778.228760,661.397827 
	C757.729492,661.304749 737.228699,661.243103 716.730713,661.426025 
	C712.160156,661.466797 711.616882,659.251099 711.628784,655.563965 
	C711.702148,632.897705 711.635803,610.231018 711.631409,587.564514 
	C711.625977,559.231567 711.646729,530.898621 711.616150,502.565674 
	C711.613770,500.351410 712.265259,497.787567 709.246582,496.356262 
	C706.215759,498.029053 704.973938,501.258057 703.226196,503.969727 
	C688.875916,526.233582 674.486572,548.473999 660.368164,570.884766 
	C652.786255,582.919861 642.681702,590.665466 628.179932,591.748901 
	C613.727234,592.828552 600.878967,589.602539 592.352173,576.773926 
	C580.548462,559.015015 569.043518,541.057556 557.414429,523.182617 
	C551.781616,514.524414 546.166077,505.854919 540.519775,497.205505 
	C539.727112,495.991302 539.203674,494.454987 536.751831,494.025330 
	C534.750183,502.503296 536.905090,511.294098 535.528870,519.790833 
	C532.464600,519.728821 531.346130,517.647766 529.894043,516.187439 
	C507.219513,493.384949 480.609375,477.196198 449.533936,468.682037 
	C445.822418,467.665131 444.811890,466.011932 444.819763,462.495819 
	C444.894592,428.996490 444.903809,395.496826 444.789520,361.997711 
	C444.776398,358.149445 445.485901,356.432312 449.941284,356.374939 
	C468.599823,356.134735 487.286102,355.235046 505.891235,356.812683 
	C522.151733,358.191498 534.737671,366.464935 543.638550,380.118774 
	C556.285950,399.519684 568.793701,419.011566 581.385681,438.448669 
	C588.813843,449.914886 596.289490,461.350372 603.939209,473.103882 
z"/>
<path fill="#2E8B57" opacity="1.000000" stroke="none" 
	d="
M475.748230,661.216736 
	C467.110474,661.253113 458.937378,661.060486 450.784088,661.377930 
	C446.190369,661.556763 444.751587,660.002441 444.770538,655.389038 
	C444.911255,621.063721 444.826843,586.737488 444.784668,552.411499 
	C444.773834,543.588867 444.699036,543.316040 435.939240,541.748657 
	C426.100647,539.988159 416.161957,539.034119 406.137360,539.042053 
	C377.144073,539.065125 348.150330,539.082336 319.157806,538.919922 
	C314.623230,538.894531 313.112091,540.383667 313.131653,544.978760 
	C313.287018,581.470337 313.227478,617.962952 313.224884,654.455200 
	C313.224396,661.303772 313.205719,661.323364 306.266663,661.326233 
	C287.270691,661.333984 268.274719,661.334412 249.278732,661.314514 
	C243.109299,661.308044 242.866821,661.054749 242.867859,654.762268 
	C242.883682,558.449646 242.906830,462.136993 242.930466,365.824371 
	C242.930847,364.324768 243.073318,362.815735 242.950638,361.327454 
	C242.644440,357.612823 244.544601,356.232544 247.983002,356.225067 
	C268.144135,356.181183 288.305237,356.131561 308.466217,356.046478 
	C313.131744,356.026794 313.181610,359.123230 313.179199,362.519867 
	C313.155609,395.679413 313.141724,428.839020 313.205566,461.998474 
	C313.226227,472.737091 311.778961,471.809540 323.154816,471.807007 
	C343.150543,471.802521 363.150146,472.043213 383.141296,471.736359 
	C439.723328,470.867859 487.365173,491.374908 527.167236,531.151367 
	C545.330627,549.303101 561.759521,569.042297 579.404114,587.662354 
	C602.744507,612.293274 627.396729,635.360046 657.485046,651.781738 
	C686.309143,667.513611 716.858276,676.349365 749.955078,673.586365 
	C777.187500,671.312805 801.560181,661.126099 823.505981,644.997070 
	C836.027283,635.794556 847.472290,625.379700 858.092651,614.045288 
	C858.851868,613.234863 859.382446,612.062439 860.883240,611.942932 
	C860.921753,612.432800 861.163330,613.025085 860.964478,613.332581 
	C848.275269,632.957397 835.128174,652.157349 816.143677,666.529480 
	C787.283936,688.377808 755.013000,699.425537 718.713989,697.128540 
	C689.806213,695.299194 663.042603,685.893738 637.692871,672.261780 
	C605.896851,655.163391 578.331482,632.356018 551.783142,608.201172 
	C548.210144,604.950439 544.643433,601.692139 541.029236,598.487732 
	C539.919739,597.504089 538.685425,596.353149 537.042114,597.068298 
	C535.408081,597.779480 535.504150,599.423340 535.339783,600.931702 
	C532.165771,630.059448 516.721497,649.358887 488.944427,658.749634 
	C484.817108,660.145020 480.514160,660.653076 475.748230,661.216736 
z"/>
</svg>